<!--?xml version="1.0" encoding="utf-8"?-->
<!-- Svg Vector Icons : http://www.onlinewebfonts.com/icon -->

<svg version="1.1" xmlns="http://www.w3.org/2000/svg" xmlns:xlink="http://www.w3.org/1999/xlink" x="0px" y="0px" viewBox="0 0 256 256" enable-background="new 0 0 256 256" xml:space="preserve">
<metadata> Svg Vector Icons : http://www.onlinewebfonts.com/icon </metadata>
<g><g><g><path fill="#fff" data-title="Layer 0" xs="0" d="M14.7,81.5c-1,0.6-2.4,1.9-3.1,3l-1.4,1.9l-0.2,40.5c-0.2,45.3-0.3,43.9,3.7,46.9l2,1.5l111.6,0.2c123.3,0.1,113.9,0.5,117-3.6l1.6-2.1V128c0-41.5,0-41.8-1.2-43.4c-0.6-0.9-2-2.2-3.1-2.9l-1.9-1.2H128.2C19.5,80.4,16.4,80.5,14.7,81.5z M241.1,83.3c3.7,2.3,3.6,0.9,3.4,45.5c-0.2,39-0.2,40.4-1.3,42c-2.3,3.4,5,3.2-115.1,3.2c-124.2,0-113.3,0.4-115.4-4.3c-1-2.3-1-4.3-0.9-42.6C11.9,88.8,12,86.9,13,85.4c2.3-3.4-6-3.2,115.1-3.2C238.6,82.1,239.2,82.1,241.1,83.3z"/><path fill="#fff" data-title="Layer 1" xs="1" d="M99.3,101.1c-4.5,1.6-6.8,5-6.9,10.3c0,7.4,5.8,11.2,14.3,9.5c1.6-0.3,1.8-0.5,1.8-3.1v-2.7l-2.2,0.6c-4.3,1.1-7.5-0.8-7.5-4.6c0-3.2,2-5.4,4.9-5.4c1.2-0.1,2.8,0.2,3.5,0.4c1.2,0.5,1.2,0.3,1.2-2.3c0-2.7-0.1-2.8-1.8-3.2C104.1,100.1,101.7,100.2,99.3,101.1z"/><path fill="#fff" data-title="Layer 2" xs="2" d="M136.3,101.5c-3.4,1.8-4.6,4.6-3.2,7.6c0.7,1.6,1.7,2.4,4.6,3.7c2.7,1.2,3.6,1.9,3.5,2.7c-0.2,1.3-3.2,1.5-5.8,0.5c-1.2-0.5-2.2-0.9-2.3-0.9s-0.2,1.1-0.2,2.6c0,2.3,0.2,2.7,1.5,3.1c2.1,0.8,7.3,0.7,9.5-0.2c2.4-1,4.3-3.5,4.3-5.5c0-2.2-2.4-4.8-6-6.4c-1.8-0.8-3.1-1.8-3.1-2.3c0-1.2,2.5-1.8,5.1-1c2.9,0.9,2.8,0.9,2.8-1.9c0-2.4-0.1-2.5-2.1-2.8C141.2,100,138.9,100.3,136.3,101.5z"/><path fill="#fff" data-title="Layer 3" xs="3" d="M187.1,101.3c-2.7,1.2-3.9,2.5-5.1,5.3c-2.9,7,1.9,14.6,9.1,14.6c4.5,0,7.5-1.9,9.4-6c2.6-5.6-0.1-12.5-5.7-14.4C192,100,189.7,100.1,187.1,101.3z M194,107c1.2,1.5,0.9,6.7-0.4,8c-3.2,3.2-7.4-1.4-5.7-6.5C188.9,105.4,192.2,104.6,194,107z"/><path fill="#fff" data-title="Layer 4" xs="4" d="M37.3,103.4l-1.8,2.6h5c8.7,0,15.5,2,17.1,5.1c0.6,1.1,0.4,1.1-9,1.1h-9.5l-1.8,2.6c-1,1.4-1.8,2.7-1.8,2.8c0,0.2,5.4,0.3,11.9,0.3c7.9,0,11.9,0.2,11.9,0.6c0,1.5-2.4,5-4.4,6.3c-3.3,2.2-6.2,2.9-11.9,2.9l-5.3,0.1v2.8v2.8L49.4,146L61,158.6h4.2c2.3,0,4.3-0.2,4.5-0.5c0.2-0.3-4.8-6.2-10.9-13.2c-6.2-7-11.2-12.8-11.1-12.9c0.1-0.1,1.8-0.4,3.7-0.7c7.4-1.2,13-5,15.3-10.4l1.4-3.1l3.6-0.2c3.7-0.2,3.7-0.2,5.6-2.9l1.9-2.7h-5.7h-5.7l-1.3-2.7c-0.7-1.5-1.4-2.8-1.5-3.1c-0.1-0.2,2.2-0.4,5.2-0.4h5.4l1.4-1.9c0.7-1,1.6-2.2,1.8-2.6c0.3-0.5-3.7-0.7-19.6-0.7H39.1L37.3,103.4z"/><path fill="#fff" data-title="Layer 5" xs="5" d="M113.6,110.3c-1.8,5.3-3.3,9.9-3.3,10.3c0,0.5,1,0.7,3.1,0.7c3,0,3.1-0.1,3.6-1.9c0.5-1.8,0.6-1.8,3.5-1.8c2.9,0,3.1,0.1,3.5,1.8c0.5,1.8,0.6,1.9,3.6,1.9c2.2,0,3.1-0.2,3.1-0.7c0-0.3-1.4-4.9-3.1-10l-3-9.4l-3.9-0.2l-3.9-0.2L113.6,110.3z M121.2,108.1c0.2,0.9,0.5,2.3,0.7,3.1c0.3,1.4,0.2,1.5-1.5,1.5s-1.8-0.1-1.5-1.5c0.2-0.9,0.6-2.2,0.7-3.1C120.1,106,120.8,106,121.2,108.1z"/><path fill="#fff" data-title="Layer 6" xs="6" d="M151.1,111.1v10.2l3-0.2l2.9-0.2l0.2-3.9l0.2-3.8h3.3h3.4v4v4l3-0.2l2.9-0.2l0.2-10.1l0.1-10h-3.1h-3.1v3.7v3.7h-3.4h-3.4v-3.7v-3.7h-3.1h-3.1V111.1z"/><path fill="#fff" data-title="Layer 7" xs="7" d="M204.3,111.1v10.2l2.7-0.2l2.7-0.2l0.3-5.7l0.3-5.7l4.1,5.8l4.2,5.8h2.5h2.5V111v-10.2h-2.8H218l-0.2,5.1l-0.2,5.1l-3.7-5.1l-3.7-5.1h-2.9h-3L204.3,111.1L204.3,111.1z"/><path fill="#fff" data-title="Layer 8" xs="8" d="M93.3,147v9.9h5.8c7.4,0,10.1-1.2,12.2-5.1c1.7-3.3,1.5-8.6-0.5-11.3c-1.9-2.7-4.2-3.4-11.3-3.4h-6.2V147L93.3,147z M104.1,142.8c3.7,2.9,1.5,9.6-3.1,9.6h-1.6V147v-5.4h1.6C102,141.6,103.4,142.1,104.1,142.8z"/><path fill="#fff" data-title="Layer 9" xs="9" d="M115.4,147v9.9h6.5h6.5v-2.3v-2.3H125c-3.2,0-3.4-0.1-3.4-1.4c0-1.3,0.2-1.4,3-1.6l2.9-0.2l0.2-2.4l0.2-2.4h-3.1c-3,0-3.2-0.1-3.2-1.4s0.2-1.4,3.1-1.4h3.1v-2.3v-2.3h-6.2h-6.2L115.4,147L115.4,147z"/><path fill="#fff" data-title="Layer 10" xs="10" d="M131.2,147v9.9h6.5h6.5v-2.3v-2.3h-3.4h-3.4v-7.7v-7.7h-3.1h-3.1L131.2,147L131.2,147z"/><path fill="#fff" data-title="Layer 11" xs="11" d="M147.1,147v9.9h3.1h3.1V147v-9.9h-3.1h-3.1V147z"/><path fill="#fff" data-title="Layer 12" xs="12" d="M155.6,137.5c0,0.2,1.4,4.6,3.1,9.8l3.1,9.4h3.6h3.5l3.1-9.1c1.6-5,3-9.4,3-9.7c0-0.5-1-0.7-3-0.7h-3l-1.7,6.9l-1.7,7l-1.7-6.8l-1.7-6.8l-3.2-0.2C157.1,137.1,155.6,137.3,155.6,137.5z"/><path fill="#fff" data-title="Layer 13" xs="13" d="M177.7,147v9.9h6.5h6.5v-2.3v-2.3h-3.7c-3.6,0-3.7-0.1-3.7-1.4c0-1.4,0.2-1.4,3.1-1.4h3.1V147v-2.6h-3.1c-2.9,0-3.1-0.1-3.1-1.4c0-1.4,0.2-1.4,3.4-1.4h3.4v-2.3v-2.3h-6.2h-6.2V147z"/><path fill="#fff" data-title="Layer 14" xs="14" d="M193.6,147v9.9h3.1h3.1v-3.4c0-2.6,0.2-3.4,0.8-3.4c0.5,0,1.6,1.5,2.7,3.4l1.8,3.4h3.3c1.9,0,3.3-0.2,3.3-0.3c0-0.9-5.2-8.2-5.8-8.2c-0.4-0.1-0.1-0.4,0.8-0.9c3.7-2,4.2-7.3,0.8-9.3c-1.5-1-2.9-1.1-7.9-1.1h-6.1V147z M202.3,141.4c1.9,0.7,0.7,4.2-1.5,4.2c-0.8,0-1-0.5-1-2.3C199.8,141,200.3,140.7,202.3,141.4z"/><path fill="#fff" data-title="Layer 15" xs="15" d="M214.9,143.6c2.7,5.7,3.1,7,3.1,9.9v3.4h3.1h3.1v-3.7c0-3.3,0.3-4.3,3.1-9.9l3.1-6.2h-3.3h-3.3l-1,3.6c-0.6,2-1.2,3.6-1.4,3.5c-0.2-0.1-0.9-1.8-1.4-3.7l-1-3.4h-3.6h-3.6L214.9,143.6z"/></g></g></g>
</svg>