<svg xmlns="http://www.w3.org/2000/svg" width="100" height="100" id="netbanking"><g transform="translate(1226.311 -320.3) scale(.85731)"><rect width="101.851" height="40.714" x="-73.879" y="317.729" fill="#fff" fill-rule="evenodd" stroke="#000" stroke-linecap="round" stroke-linejoin="round" stroke-width=".8" rx="3.599" ry="3.599" transform="translate(-1348.255 94.513)"></rect><g style="line-height:125%;-inkscape-font-specification:'Segoe WP Black, Ultra-Bold'" font-family="Sans" font-size="20.206" font-weight="400" letter-spacing="0" word-spacing="0"><path d="m-1380.133 429.536-3.104-4.245c-.131-.18-.246-.345-.344-.494a8.951 8.951 0 0 1-.258-.414h-.024a26.525 26.525 0 0 1 .038 1.46v3.693h-2.454v-8.798h2.504l2.975 4.037c.037.054.082.117.135.19a11.665 11.665 0 0 1 .31.455c.047.073.083.139.107.196h.024a4.037 4.037 0 0 1-.034-.482v-4.396h2.454v8.798zM-1376.071 429.536v-8.798h5.478v2.074h-2.828v1.282h2.657v2.074h-2.657v1.295h3.031v2.073zM-1364.678 422.812v6.724h-2.663v-6.724h-2.46v-2.074h7.614v2.074zM-1378.765 442.543c0 .385-.067.742-.2 1.07-.132.33-.34.615-.622.857-.282.241-.644.43-1.086.567-.441.137-.973.206-1.595.206h-4.012v-8.798h3.736c1.174 0 2.051.178 2.632.533.58.356.871.888.871 1.596a1.64 1.64 0 0 1-.346 1.03 1.873 1.873 0 0 1-.356.353 2.824 2.824 0 0 1-1.181.525v.024c.343.041.65.128.917.261.268.133.494.292.678.479.184.186.324.391.42.616.096.225.144.452.144.681zm-3.092-3.51c0-.29-.114-.498-.344-.625-.228-.127-.541-.19-.938-.19h-.491v1.662h.767c.151 0 .29-.021.414-.064a.963.963 0 0 0 .32-.178.77.77 0 0 0 .202-.27.805.805 0 0 0 .07-.334zm.276 3.498a.833.833 0 0 0-.601-.81 1.275 1.275 0 0 0-.405-.061h-1.043v1.797h.883c.172 0 .33-.02.473-.061a1.1 1.1 0 0 0 .368-.178.816.816 0 0 0 .325-.687zM-1372.077 445.243l-.387-1.62h-2.626l-.417 1.62h-2.865l3.03-8.798h3.29l2.852 8.798zm-1.491-5.896a9.204 9.204 0 0 1-.068-.298c-.02-.1-.04-.194-.055-.282a3.6 3.6 0 0 1-.037-.24c-.01-.071-.014-.127-.018-.168h-.061c-.01.082-.03.209-.064.38-.035.172-.077.358-.126.559l-.638 2.441h1.681zM-1362.021 445.243l-3.105-4.246c-.13-.18-.245-.344-.344-.494a9.044 9.044 0 0 1-.257-.414h-.024c.012.217.022.444.028.681.01.237.01.497.01.78v3.693h-2.454v-8.798h2.503l2.976 4.037.135.19a11.666 11.666 0 0 1 .31.454c.046.074.082.139.107.196h.024a4.037 4.037 0 0 1-.034-.481v-4.396h2.454v8.798zM-1353.095 445.243l-1.95-3.718-.062-.138a3.177 3.177 0 0 1-.172-.47h-.03v4.326h-2.651v-8.798h2.65v4.184h.031a5.217 5.217 0 0 1 .264-.614l1.755-3.57h3.141l-2.497 4.196 2.736 4.602zM-1349.297 445.243v-8.798h2.65v8.798zM-1338.756 445.243l-3.105-4.246c-.13-.18-.245-.344-.343-.494a8.957 8.957 0 0 1-.258-.414h-.024a26.523 26.523 0 0 1 .038 1.46v3.694h-2.454v-8.798h2.503l2.976 4.037.135.19a11.666 11.666 0 0 1 .31.454c.046.074.082.139.107.196h.024a4.037 4.037 0 0 1-.034-.481v-4.396h2.454v8.798zM-1326.989 444.666c-.106.061-.27.134-.49.218-.222.084-.481.163-.78.24-.299.075-.627.14-.985.192-.358.054-.729.08-1.113.08-.785 0-1.479-.101-2.08-.304-.601-.202-1.105-.494-1.512-.874a3.665 3.665 0 0 1-.924-1.387c-.208-.544-.313-1.155-.313-1.834 0-.4.043-.794.13-1.181a4.6 4.6 0 0 1 .395-1.101 4.118 4.118 0 0 1 1.672-1.733c.38-.215.815-.383 1.304-.504a6.858 6.858 0 0 1 1.64-.18c.263 0 .512.01.75.03a9.684 9.684 0 0 1 1.242.187c.174.04.326.075.457.108v2.313a7.133 7.133 0 0 0-.43-.178 4.585 4.585 0 0 0-.509-.157 5.247 5.247 0 0 0-.635-.113 6.81 6.81 0 0 0-.813-.043c-.331 0-.641.05-.93.15-.288.1-.54.253-.757.457a2.145 2.145 0 0 0-.512.77 2.88 2.88 0 0 0-.187 1.083c0 .454.061.83.187 1.129.124.299.285.538.481.718.197.18.417.307.663.38.245.074.489.11.73.11.151 0 .287-.004.408-.015.12-.01.208-.021.26-.033v-1.258h-1.686v-2.006h4.337z" style="text-align:start;line-height:125%;-inkscape-font-specification:'Segoe WP Black, Ultra-Bold'" font-family="Segoe WP Black" font-size="12.565" font-weight="800"></path></g><path fill-rule="evenodd" d="M-1412.828 420.511a.727.727 0 0 0-.588.695c-.132 3.026.403 4.76 1.577 5.508.587.374 1.285.385 1.872.188.586-.197 1.093-.592 1.497-1.07.447-.528 1.649-1.001 2.54-.829.446.086.822.276 1.097.669.274.392.472 1.03.427 2.032a.727.727 0 1 0 1.444.08c.055-1.23-.194-2.225-.695-2.941-.501-.717-1.229-1.112-1.979-1.257-1.499-.29-3.073.264-3.957 1.31-.261.309-.563.526-.829.615-.265.09-.446.098-.642-.027-.39-.248-1.031-1.386-.909-4.198a.727.727 0 0 0-.855-.775zm6.417 9.145a3.065 3.065 0 0 0-3.075 3.075v1.042h4.813v-4.117h-1.738zm3.342 0v4.117h5.348v-1.042a3.065 3.065 0 0 0-3.075-3.075h-2.273zm-6.417 5.722v6.63a3.065 3.065 0 0 0 3.075 3.076h5.615a3.065 3.065 0 0 0 3.075-3.075v-6.631h-11.765z"></path></g></svg>