<?xml version="1.0" ?><svg height="301px" version="1.1" viewBox="0 0 480 301" width="480px" xmlns="http://www.w3.org/2000/svg" xmlns:sketch="http://www.bohemiancoding.com/sketch/ns" xmlns:xlink="http://www.w3.org/1999/xlink"><title/><desc/><defs/><g fill="none" fill-rule="evenodd" id="round-rect" stroke="none" stroke-width="1"><g id="rupay"><path d="M444,3.03581628e-06 C420,5.30180998e-06 165.902344,-4.81179503e-06 24,3.03581628e-06 C12,3.6994511e-06 -6.11066753e-13,12.0056015 -1.42108547e-14,24.0112 C-1.42108547e-14,96.1913435 2.8991193e-06,240.111972 -1.42108547e-14,264.123169 C-1.38851962e-06,288.134366 12,300.139965 36,300.139965 C169.869629,300.139965 420,300.139967 444,300.139965 C468,300.139965 480,288.134366 480,264.123169 C479.999998,240.111972 479.999994,115.769809 480,36.0167984 C480,12.0056015 468,3.03581628e-06 444,3.03581628e-06 Z" fill="#F4F4F4" id="Rectangle-2"/><g id="RuPay" transform="translate(76.000000, 102.000000)"><path d="M0.955591707,69.5532577 C0.632318087,69.3406472 2.85468576,60.7792175 8.15347029,41.8242118 C12.3695206,26.7424 16.334613,12.634471 16.9647878,10.4732484 L18.1105587,6.54375293 L34.6764876,6.84620232 C54.0424034,7.19978434 57.0235188,7.45567329 60.1388072,9.03186626 C65.6617168,11.8262028 67.1820929,16.1256015 65.2788591,23.5671693 C63.6578644,29.9051964 60.5610518,34.2186503 54.5731821,38.4787782 C53.4375441,39.2867399 52.4454735,40.2744601 52.3685803,40.6737236 C52.2832345,41.1168865 52.9909299,42.093269 54.1854135,43.1803434 C55.2615614,44.1597256 56.405468,45.4704417 56.7274342,46.0930486 C57.5937553,47.7683297 57.4433314,51.1250043 56.2412243,56.9426413 C55.6518467,59.7949487 55.0589904,63.8712781 54.9237668,66.0011566 L54.6779076,69.873649 L46.6595055,69.873649 C40.9811652,69.873649 38.4944872,69.7270409 38.1387215,69.3712735 C37.3563011,68.58885 37.5332736,66.5930001 38.8922887,60.8727094 C40.4047107,54.506717 40.4962382,52.0084594 39.2739723,50.4545951 C37.6593601,48.4019518 36.1950267,47.9580954 30.3982266,47.7642817 C25.7211722,47.6079002 24.9413226,47.6782086 24.2319369,48.3201928 C23.1289196,49.3184121 22.2335776,51.8963402 19.6178746,61.605347 L17.3903103,69.873649 L9.40678502,69.867198 C5.01584571,69.8639725 1.21280876,69.7223719 0.955591707,69.5532093 L0.955591707,69.5532093 L0.955591707,69.5532577 Z M43.1027903,34.0333036 C46.9098909,32.9027088 48.5136871,30.4196676 48.5188657,25.6479634 C48.5205591,24.2123226 48.2774311,23.2020157 47.7885666,22.6115673 C46.6329675,21.2158344 43.1522828,20.7420209 36.6234651,21.0917081 L30.9480407,21.3956735 L30.1215927,24.1789385 C28.8454485,28.4766518 27.9504912,32.6320147 28.0901871,33.6109372 C28.1815887,34.2514377 28.6238735,34.5777318 29.6820246,34.7853105 C32.0000189,35.2400288 40.6763757,34.7538616 43.1027903,34.0333036 L43.1027903,34.0333036 L43.1027903,34.0333036 Z" fill="#265797" id="path4510-9" opacity="0.9375"/><path d="M69.9543443,70.781094 C67.4187157,69.8743264 65.4252108,68.1815388 64.5876025,66.2239275 C62.9953634,62.5026235 64.4593783,54.2314507 70.2719391,34.109434 C71.6639167,29.2906613 72.8028076,25.3007921 72.8028076,25.2430552 C72.8028076,25.1853183 73.0988519,24.8420418 73.4606832,24.4802105 C73.9976831,23.943209 75.2234163,23.8223325 80.131807,23.8223325 C83.4390907,23.8223325 86.6133215,24.0003653 87.1856586,24.2179754 L88.2262774,24.6136102 L87.1880536,28.2997963 C84.6421711,37.3389181 82.0017162,48.3036298 81.5452561,51.7320722 C81.1306472,54.8461309 81.1465409,55.6739457 81.6407558,56.7050976 C82.7650205,59.0508282 86.8463818,59.5469461 90.3197962,57.7601022 C94.3947548,55.6637934 95.1591074,53.8695791 101.709551,31.0239293 C102.670008,27.6741977 103.402597,25.9334384 104.220195,25.0581923 L105.374667,23.8223325 L111.918208,23.8223325 C116.978645,23.8223325 118.510213,23.9486037 118.675545,24.3794532 C118.839297,24.8061821 110.523669,55.7669134 107.018636,67.7804125 L106.468991,69.6643286 L99.4734402,69.873649 C95.6258811,69.9887841 92.4781964,69.9653668 92.4785834,69.8216374 C92.4789705,69.6778919 92.7645907,68.751618 93.1133103,67.7632527 C94.527977,63.7536513 92.7641714,63.5021168 87.6120488,66.9787325 C82.5210983,70.4140696 80.3867202,71.2279017 75.9791536,71.4142967 C72.9994033,71.5403018 71.6935537,71.403088 69.9543443,70.781102 L69.9543443,70.781102 L69.9543443,70.781094 Z" fill="#265797" id="path4512-4" opacity="0.9375"/><path d="M116.4649,69.5396701 C116.092884,69.3032311 118.24672,60.9945294 124.629703,38.0427921 L133.299816,6.86707147 L147.951351,6.98972205 C166.228731,7.14271675 169.965711,7.46698681 173.499346,9.20658487 C176.404866,10.636968 177.788197,11.9161305 179.081544,14.3684002 C181.254362,18.4882097 181.218099,23.2667278 178.964264,29.8238567 C175.500018,39.9024361 169.033582,46.5292605 160.509641,48.7361888 C159.128101,49.0938833 154.795092,49.5778169 150.880733,49.8115948 C137.949096,50.5839064 138.726657,50.4385401 138.034008,52.2134415 C137.702996,53.0616819 136.411222,57.382232 135.163412,61.8146674 L132.894666,69.873649 L124.932434,69.867198 C120.553212,69.8639725 116.742819,69.7162595 116.4649,69.5396217 L116.4649,69.5396701 Z M154.166131,35.9849557 C158.427477,35.435802 160.666192,34.1213926 162.088181,31.333741 C163.616193,28.3382284 164.01948,25.0773116 163.045726,23.5911753 C161.718713,21.5659006 159.901695,21.1234231 153.055188,21.1582991 C149.64601,21.1756363 146.689058,21.3582897 146.484181,21.5641426 C146.015416,22.0351338 143.135732,33.4176719 143.135732,34.7995673 C143.135732,35.3627762 143.261325,35.9491766 143.414836,36.1026793 C143.811584,36.4994269 150.764702,36.4232884 154.166131,35.9849557 L154.166131,35.9849557 L154.166131,35.9849557 Z" fill="#265797" id="path4514-8" opacity="0.9375"/><path d="M178.092872,70.9536918 C173.16294,68.8886302 171.885591,65.4758477 173.492145,58.6616283 C175.737932,49.1361135 180.685162,45.9506095 197.66867,43.0944315 C207.923339,41.3698644 210.483365,40.109418 211.220866,36.4219014 C211.766455,33.6939542 209.428506,32.2023667 204.599637,32.1976333 C201.585078,32.1944077 200.454274,32.6341919 197.839115,34.8252989 L195.731557,36.5911044 L190.301854,36.7303099 C184.008589,36.8916588 182.070033,36.6412129 182.070033,35.6668302 C182.070033,34.5315423 184.53822,31.0632243 186.845777,28.9559003 C189.323988,26.6927512 192.603613,24.958572 196.154609,24.0336528 C203.612836,22.0910321 216.450296,22.3168592 220.862152,24.4682922 C223.223664,25.6198691 225.322739,27.5324117 226.322393,29.4433012 C227.268617,31.2520546 226.9303,33.1289229 222.471536,50.8065321 C220.283034,59.4832662 218.49244,67.3229444 218.49244,68.2280347 L218.49244,69.873649 L213.317771,69.873649 C210.471697,69.873649 207.273081,69.9928967 206.209731,70.1386501 L204.276367,70.4036431 L203.425958,68.4197115 C202.426787,66.0887538 202.309612,66.0894473 197.045241,68.4573695 C191.327813,71.0290481 189.232738,71.6022642 184.791247,71.8100525 C181.011867,71.9868677 180.360504,71.9035927 178.092872,70.953724 L178.092872,70.953716 L178.092872,70.9536918 Z M200.594197,61.1719171 C203.481106,59.8948996 206.742031,54.6684529 206.761094,51.2879256 L206.770287,49.6574551 L204.110229,49.9058527 C201.167623,50.1806352 194.943578,52.1879195 192.662188,53.5978932 C190.735993,54.7883537 189.607681,56.7061459 189.61368,58.7794728 C189.619325,60.7679363 189.912017,61.3118726 191.292114,61.8998213 C192.867928,62.5711578 198.411694,62.1373409 200.594197,61.1719171 L200.594197,61.1719171 Z" fill="#265797" id="path4516-8" opacity="0.9375"/><path d="M223.651288,89.705425 C221.974378,89.3272644 221.910069,88.7012627 223.076185,84.1076961 C224.638919,77.9517983 224.536186,78.0798678 228.392648,77.4803072 C232.555333,76.8331541 234.414074,75.9184114 235.342388,74.0601382 C236.370604,72.0018825 236.296829,63.9196368 235.051962,42.2428607 C234.359216,30.1801159 234.186876,24.7089809 234.488228,24.3456416 C234.805733,23.9628122 236.924588,23.8223325 242.381039,23.8223325 L249.839831,23.8223325 L249.97011,37.82669 C250.058998,47.3807991 250.248304,51.9787765 250.565832,52.2959182 C251.327814,53.0569565 254.128916,48.3200316 265.60843,26.8575351 L267.231852,23.8223325 L273.817422,23.8223325 C277.439485,23.8223325 280.492114,23.9665457 280.601056,24.1428045 C280.810715,24.4820491 270.831772,42.2704551 260.818284,59.4074422 C246.586196,83.7641132 243.90926,87.120691 237.232819,88.9808915 C235.052969,89.5882497 225.412247,90.1025516 223.651288,89.705425 L223.651288,89.705425 L223.651288,89.705425 Z" fill="#265797" id="path4518-2" opacity="0.9375"/><path d="M285.352365,84.1189991 L304.92418,12.4254625 L323.554029,49.4758394 L285.352365,84.1189991 Z" fill="#479951" id="path6141-55"/><path d="M273.241028,84.3801053 L292.812843,12.6865687 L311.442691,49.7369456 L273.241028,84.3801053 Z" fill="#D97B16" id="path6141-5-1"/><path d="M327.170414,11.0838112 L327.170414,6.19747655 L325.311635,6.19747655 L325.311635,5.34553641 L330.000826,5.34553641 L330.000826,6.19747655 L328.127966,6.19747655 L328.127966,11.0838112 L327.170414,11.0838112 Z M330.641543,11.0838112 L330.641543,5.34553641 L332.049709,5.34553641 L333.500117,9.92911537 L334.901242,5.34553641 L336.281246,5.34553641 L336.281246,11.0838112 L335.408182,11.0838112 L335.408182,6.26788465 L333.929609,11.0838112 L333.063588,11.0838112 L331.521645,6.19747655 L331.521645,11.0838112 L330.641543,11.0838112 Z" fill="#000000" id="tm"/><path d="M339.162885,8.10987252 C339.162885,12.5074425 335.597952,16.0723763 331.200382,16.0723763 C326.802811,16.0723763 323.237874,12.5074425 323.237874,8.10987252 C323.237874,3.71230211 326.802811,0.147367091 331.200382,0.147367091 C335.597952,0.147367091 339.162885,3.71230211 339.162885,8.10987252 L339.162885,8.10987252 Z" id="circle" opacity="0.9375" stroke="#000000" stroke-width="0.5"/></g></g></g></svg>